<svg width="16" height="16" viewBox="0 0 16 16" fill="none" xmlns="http://www.w3.org/2000/svg">
<g id="mdi:calendar-today-outline">
<path id="Vector" d="M12.6667 1.99996H12V0.666626H10.6667V1.99996H5.33333V0.666626H4V1.99996H3.33333C2.97971 1.99996 2.64057 2.14044 2.39052 2.39048C2.14048 2.64053 2 2.97967 2 3.33329V12.6666C2 13.0202 2.14048 13.3594 2.39052 13.6094C2.64057 13.8595 2.97971 14 3.33333 14H12.6667C13.4067 14 14 13.4066 14 12.6666V3.33329C14 2.59329 13.4067 1.99996 12.6667 1.99996ZM12.6667 12.6666H3.33333V5.99996H12.6667V12.6666ZM12.6667 4.66663H3.33333V3.33329H12.6667M4.66667 7.33329H8V10.6666H4.66667" fill="#4097FF"/>
</g>
</svg>
